ffmpeg version 7.1 Copyright (c) 2000-2024 the FFmpeg developers
  built with Apple clang version 16.0.0 (clang-1600.0.26.4)
  configuration: --prefix=/opt/homebrew/Cellar/ffmpeg/7.1_3 --enable-shared --enable-pthreads --enable-version3 --cc=clang --host-cflags= --host-ldflags='-Wl,-ld_classic' --enable-ffplay --enable-gnutls --enable-gpl --enable-libaom --enable-libaribb24 --enable-libbluray --enable-libdav1d --enable-libharfbuzz --enable-libjxl --enable-libmp3lame --enable-libopus --enable-librav1e --enable-librist --enable-librubberband --enable-libsnappy --enable-libsrt --enable-libssh --enable-libsvtav1 --enable-libtesseract --enable-libtheora --enable-libvidstab --enable-libvmaf --enable-libvorbis --enable-libvpx --enable-libwebp --enable-libx264 --enable-libx265 --enable-libxml2 --enable-libxvid --enable-lzma --enable-libfontconfig --enable-libfreetype --enable-frei0r --enable-libass --enable-libopencore-amrnb --enable-libopencore-amrwb --enable-libopenjpeg --enable-libspeex --enable-libsoxr --enable-libzmq --enable-libzimg --disable-libjack --disable-indev=jack --enable-videotoolbox --enable-audiotoolbox --enable-neon
  libavutil      59. 39.100 / 59. 39.100
  libavcodec     61. 19.100 / 61. 19.100
  libavformat    61.  7.100 / 61.  7.100
  libavdevice    61.  3.100 / 61.  3.100
  libavfilter    10.  4.100 / 10.  4.100
  libswscale      8.  3.100 /  8.  3.100
  libswresample   5.  3.100 /  5.  3.100
  libpostproc    58.  3.100 / 58.  3.100
Input #0, mov,mp4,m4a,3gp,3g2,mj2, from 'videos/Level 2 Jeff/I accidentally destroyed my webserver.mp4':
  Metadata:
    major_brand     : isom
    minor_version   : 512
    compatible_brands: isomav01iso2mp41
    encoder         : Lavf61.7.100
  Duration: 00:08:19.16, start: 0.000000, bitrate: 5130 kb/s
  Stream #0:0[0x1](und): Video: av1 (libdav1d) (Main) (av01 / 0x31307661), yuv420p(tv, bt709), 3840x2160, 5002 kb/s, SAR 1:1 DAR 16:9, 29.97 fps, 29.97 tbr, 16k tbn (default)
      Metadata:
        handler_name    : ISO Media file produced by Google Inc.
        vendor_id       : [0][0][0][0]
  Stream #0:1[0x2](eng): Audio: opus (Opus / 0x7375704F), 48000 Hz, stereo, fltp, 120 kb/s (default)
      Metadata:
        handler_name    : SoundHandler
        vendor_id       : [0][0][0][0]
Stream mapping:
  Stream #0:1 -> #0:0 (opus (native) -> mp3 (libmp3lame))
Press [q] to stop, [?] for help
Output #0, mp3, to './audios/Level 2 Jeff/I_accidentally_destroyed_my_webserver.mp3':
  Metadata:
    major_brand     : isom
    minor_version   : 512
    compatible_brands: isomav01iso2mp41
    TSSE            : Lavf61.7.100
  Stream #0:0(eng): Audio: mp3, 48000 Hz, stereo, fltp (default)
      Metadata:
        handler_name    : SoundHandler
        vendor_id       : [0][0][0][0]
        encoder         : Lavc61.19.100 libmp3lame
size=    2304KiB time=00:01:53.72 bitrate= 166.0kbits/s speed= 225x    size=    5120KiB time=00:03:48.15 bitrate= 183.8kbits/s speed= 226x    size=    7680KiB time=00:05:42.32 bitrate= 183.8kbits/s speed= 226x    size=   10240KiB time=00:07:35.57 bitrate= 184.1kbits/s speed= 226x    [out#0/mp3 @ 0x14070bcf0] video:0KiB audio:11431KiB subtitle:0KiB other streams:0KiB global headers:0KiB muxing overhead: 0.002896%
size=   11431KiB time=00:08:19.16 bitrate= 187.6kbits/s speed= 226x    
ffmpeg version 7.1 Copyright (c) 2000-2024 the FFmpeg developers
  built with Apple clang version 16.0.0 (clang-1600.0.26.4)
  configuration: --prefix=/opt/homebrew/Cellar/ffmpeg/7.1_3 --enable-shared --enable-pthreads --enable-version3 --cc=clang --host-cflags= --host-ldflags='-Wl,-ld_classic' --enable-ffplay --enable-gnutls --enable-gpl --enable-libaom --enable-libaribb24 --enable-libbluray --enable-libdav1d --enable-libharfbuzz --enable-libjxl --enable-libmp3lame --enable-libopus --enable-librav1e --enable-librist --enable-librubberband --enable-libsnappy --enable-libsrt --enable-libssh --enable-libsvtav1 --enable-libtesseract --enable-libtheora --enable-libvidstab --enable-libvmaf --enable-libvorbis --enable-libvpx --enable-libwebp --enable-libx264 --enable-libx265 --enable-libxml2 --enable-libxvid --enable-lzma --enable-libfontconfig --enable-libfreetype --enable-frei0r --enable-libass --enable-libopencore-amrnb --enable-libopencore-amrwb --enable-libopenjpeg --enable-libspeex --enable-libsoxr --enable-libzmq --enable-libzimg --disable-libjack --disable-indev=jack --enable-videotoolbox --enable-audiotoolbox --enable-neon
  libavutil      59. 39.100 / 59. 39.100
  libavcodec     61. 19.100 / 61. 19.100
  libavformat    61.  7.100 / 61.  7.100
  libavdevice    61.  3.100 / 61.  3.100
  libavfilter    10.  4.100 / 10.  4.100
  libswscale      8.  3.100 /  8.  3.100
  libswresample   5.  3.100 /  5.  3.100
  libpostproc    58.  3.100 / 58.  3.100
Input #0, mov,mp4,m4a,3gp,3g2,mj2, from 'videos/iFixit/The Worst Devices of CES 2025!!.mp4':
  Metadata:
    major_brand     : isom
    minor_version   : 512
    compatible_brands: isomiso2mp41
    encoder         : Lavf61.7.100
  Duration: 00:08:05.60, start: 0.000000, bitrate: 2800 kb/s
  Stream #0:0[0x1](und): Video: vp9 (Profile 0) (vp09 / 0x39307076), yuv420p(tv, bt709), 1920x1080, 2658 kb/s, SAR 1:1 DAR 16:9, 29.97 fps, 29.97 tbr, 16k tbn (default)
      Metadata:
        handler_name    : ISO Media file produced by Google Inc. Created on: 01/12/2025.
        vendor_id       : [0][0][0][0]
  Stream #0:1[0x2](eng): Audio: opus (Opus / 0x7375704F), 48000 Hz, stereo, fltp, 134 kb/s (default)
      Metadata:
        handler_name    : SoundHandler
        vendor_id       : [0][0][0][0]
Stream mapping:
  Stream #0:1 -> #0:0 (opus (native) -> mp3 (libmp3lame))
Press [q] to stop, [?] for help
Output #0, mp3, to './audios/iFixit/The_Worst_Devices_of_CES_2025_.mp3':
  Metadata:
    major_brand     : isom
    minor_version   : 512
    compatible_brands: isomiso2mp41
    TSSE            : Lavf61.7.100
  Stream #0:0(eng): Audio: mp3, 48000 Hz, stereo, fltp (default)
      Metadata:
        handler_name    : SoundHandler
        vendor_id       : [0][0][0][0]
        encoder         : Lavc61.19.100 libmp3lame
size=    2304KiB time=00:01:28.01 bitrate= 214.4kbits/s speed= 174x    size=    4864KiB time=00:02:53.07 bitrate= 230.2kbits/s speed= 172x    size=    7424KiB time=00:04:17.26 bitrate= 236.4kbits/s speed= 170x    size=   10240KiB time=00:05:44.60 bitrate= 243.4kbits/s speed= 171x    size=   12800KiB time=00:07:09.94 bitrate= 243.9kbits/s speed= 171x    [out#0/mp3 @ 0x13b7091f0] video:0KiB audio:14586KiB subtitle:0KiB other streams:0KiB global headers:0KiB muxing overhead: 0.002243%
size=   14586KiB time=00:08:05.60 bitrate= 246.1kbits/s speed= 170x    
ffmpeg version 7.1 Copyright (c) 2000-2024 the FFmpeg developers
  built with Apple clang version 16.0.0 (clang-1600.0.26.4)
  configuration: --prefix=/opt/homebrew/Cellar/ffmpeg/7.1_3 --enable-shared --enable-pthreads --enable-version3 --cc=clang --host-cflags= --host-ldflags='-Wl,-ld_classic' --enable-ffplay --enable-gnutls --enable-gpl --enable-libaom --enable-libaribb24 --enable-libbluray --enable-libdav1d --enable-libharfbuzz --enable-libjxl --enable-libmp3lame --enable-libopus --enable-librav1e --enable-librist --enable-librubberband --enable-libsnappy --enable-libsrt --enable-libssh --enable-libsvtav1 --enable-libtesseract --enable-libtheora --enable-libvidstab --enable-libvmaf --enable-libvorbis --enable-libvpx --enable-libwebp --enable-libx264 --enable-libx265 --enable-libxml2 --enable-libxvid --enable-lzma --enable-libfontconfig --enable-libfreetype --enable-frei0r --enable-libass --enable-libopencore-amrnb --enable-libopencore-amrwb --enable-libopenjpeg --enable-libspeex --enable-libsoxr --enable-libzmq --enable-libzimg --disable-libjack --disable-indev=jack --enable-videotoolbox --enable-audiotoolbox --enable-neon
  libavutil      59. 39.100 / 59. 39.100
  libavcodec     61. 19.100 / 61. 19.100
  libavformat    61.  7.100 / 61.  7.100
  libavdevice    61.  3.100 / 61.  3.100
  libavfilter    10.  4.100 / 10.  4.100
  libswscale      8.  3.100 /  8.  3.100
  libswresample   5.  3.100 /  5.  3.100
  libpostproc    58.  3.100 / 58.  3.100
Input #0, mov,mp4,m4a,3gp,3g2,mj2, from 'videos/GreatScott!/The Coolest Speakers are TOO PRICEY？ Let's Change that! (DIY or Buy).mp4':
  Metadata:
    major_brand     : isom
    minor_version   : 512
    compatible_brands: isomav01iso2mp41
    encoder         : Lavf61.7.100
  Duration: 00:12:29.62, start: 0.000000, bitrate: 2333 kb/s
  Stream #0:0[0x1](und): Video: av1 (libdav1d) (Main) (av01 / 0x31307661), yuv420p(tv, bt709), 2560x1440, 2195 kb/s, SAR 1:1 DAR 16:9, 30 fps, 30 tbr, 16k tbn (default)
      Metadata:
        handler_name    : ISO Media file produced by Google Inc.
        vendor_id       : [0][0][0][0]
  Stream #0:1[0x2](eng): Audio: opus (Opus / 0x7375704F), 48000 Hz, stereo, fltp, 129 kb/s (default)
      Metadata:
        handler_name    : SoundHandler
        vendor_id       : [0][0][0][0]
Stream mapping:
  Stream #0:1 -> #0:0 (opus (native) -> mp3 (libmp3lame))
Press [q] to stop, [?] for help
Output #0, mp3, to './audios/GreatScott!/The_Coolest_Speakers_are_TOO_PRICEY_Let_s_Change_that_DIY_or_Buy_.mp3':
  Metadata:
    major_brand     : isom
    minor_version   : 512
    compatible_brands: isomav01iso2mp41
    TSSE            : Lavf61.7.100
  Stream #0:0(eng): Audio: mp3, 48000 Hz, stereo, fltp (default)
      Metadata:
        handler_name    : SoundHandler
        vendor_id       : [0][0][0][0]
        encoder         : Lavc61.19.100 libmp3lame
size=    2304KiB time=00:01:32.45 bitrate= 204.1kbits/s speed= 183x    size=    4608KiB time=00:03:11.26 bitrate= 197.4kbits/s speed= 190x    size=    7168KiB time=00:04:46.16 bitrate= 205.2kbits/s speed= 189x    size=    9728KiB time=00:06:12.00 bitrate= 214.2kbits/s speed= 185x    size=   12288KiB time=00:07:47.07 bitrate= 215.5kbits/s speed= 185x    size=   14848KiB time=00:09:23.55 bitrate= 215.8kbits/s speed= 186x    size=   17408KiB time=00:10:54.63 bitrate= 217.8kbits/s speed= 185x    size=   19968KiB time=00:12:22.66 bitrate= 220.3kbits/s speed= 184x    [out#0/mp3 @ 0x13af08460] video:0KiB audio:20308KiB subtitle:0KiB other streams:0KiB global headers:0KiB muxing overhead: 0.001630%
size=   20308KiB time=00:12:29.62 bitrate= 221.9kbits/s speed= 184x    
